<svg width="65" height="92" viewBox="0 0 65 92" fill="none" xmlns="http://www.w3.org/2000/svg">
<path d="M52.0873 45.5436H46.4109V54.0581H37.8964V59.7345H52.0873V45.5436ZM18.0291 37.0291H26.5436V31.3527H12.3527V45.5436H18.0291V37.0291ZM57.7636 20H6.67636C5.1709 20 3.72709 20.598 2.66257 21.6626C1.59804 22.7271 1 24.1709 1 25.6764V65.4108C1 66.9163 1.59804 68.3601 2.66257 69.4246C3.72709 70.4891 5.1709 71.0872 6.67636 71.0872H57.7636C59.2691 71.0872 60.7129 70.4891 61.7774 69.4246C62.842 68.3601 63.44 66.9163 63.44 65.4108V25.6764C63.44 24.1709 62.842 22.7271 61.7774 21.6626C60.7129 20.598 59.2691 20 57.7636 20ZM57.7636 65.4108H6.67636V25.6764H57.7636V65.4108Z" fill="#03D6F3"/>
</svg>
