<svg width="66" height="100" viewBox="0 0 66 100" fill="none" xmlns="http://www.w3.org/2000/svg">
<path d="M33 46.4899C33.9309 46.4899 34.8238 46.8597 35.482 47.518C36.1403 48.1762 36.5101 49.0691 36.5101 50C36.5101 50.9309 36.1403 51.8238 35.482 52.482C34.8238 53.1403 33.9309 53.5101 33 53.5101C32.0691 53.5101 31.1762 53.1403 30.518 52.482C29.8597 51.8238 29.4899 50.9309 29.4899 50C29.4899 49.0691 29.8597 48.1762 30.518 47.518C31.1762 46.8597 32.0691 46.4899 33 46.4899ZM5.69132 22.6913C10.7108 17.6719 21.5921 19.9183 33 27.3949C44.4079 19.9183 55.2892 17.6719 60.3087 22.6913C65.3281 27.7108 63.0817 38.5921 55.6051 50C63.0817 61.4079 65.3281 72.2892 60.3087 77.3087C55.2892 82.3281 44.4079 80.0817 33 72.6051C21.5921 80.0817 10.7108 82.3281 5.69132 77.3087C0.671856 72.2892 2.91833 61.4079 10.3949 50C2.91833 38.5921 0.671856 27.7108 5.69132 22.6913ZM45.4258 37.5742C47.567 39.7505 49.5326 41.9618 51.3579 44.1732C56.2018 36.6967 57.9569 30.2732 55.3243 27.6757C52.7268 25.0431 46.3033 26.7982 38.8268 31.6421C41.0382 33.4674 43.2495 35.433 45.4258 37.5742ZM20.5742 62.4258C18.433 60.2495 16.4674 58.0382 14.6421 55.8268C9.79815 63.3033 8.04309 69.7268 10.6757 72.3243C13.2732 74.9569 19.6967 73.2018 27.1732 68.3579C24.9618 66.5326 22.7505 64.567 20.5742 62.4258ZM10.6757 27.6757C8.04309 30.2732 9.79815 36.6967 14.6421 44.1732C16.4674 41.9618 18.433 39.7505 20.5742 37.5742C22.7505 35.433 24.9618 33.4674 27.1732 31.6421C19.6967 26.7982 13.2732 25.0431 10.6757 27.6757ZM25.5586 57.4414C28.0156 59.8985 30.5429 62.145 33 64.1458C35.4571 62.145 37.9844 59.8985 40.4414 57.4414C42.8985 54.9844 45.145 52.4571 47.1458 50C45.145 47.5429 42.8985 45.0156 40.4414 42.5586C37.9844 40.1015 35.4571 37.855 33 35.8542C30.5429 37.855 28.0156 40.1015 25.5586 42.5586C23.1015 45.0156 20.855 47.5429 18.8542 50C20.855 52.4571 23.1015 54.9844 25.5586 57.4414ZM55.3243 72.3243C57.9569 69.7268 56.2018 63.3033 51.3579 55.8268C49.5326 58.0382 47.567 60.2495 45.4258 62.4258C43.2495 64.567 41.0382 66.5326 38.8268 68.3579C46.3033 73.2018 52.7268 74.9569 55.3243 72.3243Z" fill="white"/>
</svg>
