<svg width="70" height="103" viewBox="0 0 70 103" fill="none" xmlns="http://www.w3.org/2000/svg">
<path d="M17.2857 37.5932L10.9971 31.2716L15.16 27.0671L21.419 33.4186L17.2857 37.5932ZM37.9524 20V28.9457H32.0476V20H37.9524ZM59.0029 31.2716L52.7143 37.5932L48.581 33.4186L54.84 27.0671L59.0029 31.2716ZM12.8571 48.3281V54.2919H4V48.3281H12.8571ZM57.1429 48.3281H66V54.2919H57.1429V48.3281ZM17.2857 76.6561H52.7143C54.2803 76.6561 55.7822 77.2845 56.8896 78.4029C57.9969 79.5213 58.619 81.0382 58.619 82.6199H11.381C11.381 81.0382 12.0031 79.5213 13.1104 78.4029C14.2178 77.2845 15.7197 76.6561 17.2857 76.6561ZM35 31.9276C39.6981 31.9276 44.2038 33.8126 47.5259 37.1679C50.848 40.5232 52.7143 45.0739 52.7143 49.819V73.6742H17.2857V49.819C17.2857 45.0739 19.152 40.5232 22.4741 37.1679C25.7962 33.8126 30.3019 31.9276 35 31.9276Z" fill="#03D6F3"/>
</svg>
